<?xml version="1.0" encoding="UTF-8" standalone="no"?>
<!DOCTYPE svg PUBLIC "-//W3C//DTD SVG 1.0//EN" "http://www.w3.org/TR/2001/PR-SVG-20010719/DTD/svg10.dtd">
<svg width="87cm" height="45cm" viewBox="-7 5 87 45">
  <rect style="fill: #ffffff" x="-3" y="27" width="10" height="1.9"/>
  <rect style="fill: none; fill-opacity:0; stroke-width: 0.1; stroke: #0000ff" x="-3" y="27" width="10" height="1.9"/>
  <text style="fill: #000000; font-size: 0.8 cm; length: 6.5725 cm; font-family: sans; font-style: normal; font-weight: normal" x="-1.28625" y="28.0925">PresentationTransform</text>
  <polygon style="fill: #ffffff" points="10.7279,6 17,6 16.2721,8 10,8 "/>
  <polygon style="fill: none; fill-opacity:0; stroke-width: 0.1; stroke: #0000ff" points="10.7279,6 17,6 16.2721,8 10,8 "/>
  <text style="fill: #0000ff; font-size: 0.8 cm; length: 2.25 cm; font-family: sans; font-style: normal; font-weight: normal" x="12.375" y="7.1425">formula</text>
  <path style="fill: #ffffff" d="M 11 9 L 16,9 L 17,10 L 16,11 L 11,11 L 10,10 L 11,9z"/>
  <path style="fill: none; fill-opacity:0; stroke-width: 0.1; stroke: #0000ff" d="M 11 9 L 16,9 L 17,10 L 16,11 L 11,11 L 10,10 L 11,9"/>
  <text style="fill: #000000; font-size: 0.8 cm; length: 3.99 cm; font-family: sans; font-style: normal; font-weight: normal" x="11.505" y="10.1425">IntuitiveLexer</text>
  <path style="fill: #ffffff" d="M 11.0061 12 L 16.0407,12 L 17.0476,13 L 16.0407,14 L 11.0061,14 L 9.99918,13 L 11.0061,12z"/>
  <path style="fill: none; fill-opacity:0; stroke-width: 0.1; stroke: #0000ff" d="M 11.0061 12 L 16.0407,12 L 17.0476,13 L 16.0407,14 L 11.0061,14 L 9.99918,13 L 11.0061,12"/>
  <text style="fill: #000000; font-size: 0.8 cm; length: 4.2275 cm; font-family: sans; font-style: normal; font-weight: normal" x="11.4097" y="13.1425">IntuitiveParser</text>
  <polygon style="fill: #ffffff" points="23.7279,6 35,6 34.2721,8 23,8 "/>
  <polygon style="fill: none; fill-opacity:0; stroke-width: 0.1; stroke: #0000ff" points="23.7279,6 35,6 34.2721,8 23,8 "/>
  <text style="fill: #0000ff; font-size: 0.8 cm; length: 5.4125 cm; font-family: sans; font-style: normal; font-weight: normal" x="26.2937" y="7.1425">MathML document</text>
  <polygon style="fill: #ffffff" points="41.7278,6 46.774,6 46.0461,8 40.9999,8 "/>
  <polygon style="fill: none; fill-opacity:0; stroke-width: 0.1; stroke: #0000ff" points="41.7278,6 46.774,6 46.0461,8 40.9999,8 "/>
  <text style="fill: #0000ff; font-size: 0.8 cm; length: 3.655 cm; font-family: sans; font-style: normal; font-weight: normal" x="42.0595" y="7.1425">LISP formula</text>
  <path style="fill: #ffffff" d="M 24.7143 9 L 33.2857,9 L 35,10 L 33.2857,11 L 24.7143,11 L 23,10 L 24.7143,9z"/>
  <path style="fill: none; fill-opacity:0; stroke-width: 0.1; stroke: #0000ff" d="M 24.7143 9 L 33.2857,9 L 35,10 L 33.2857,11 L 24.7143,11 L 23,10 L 24.7143,9"/>
  <text style="fill: #000000; font-size: 0.8 cm; length: 5.7825 cm; font-family: sans; font-style: normal; font-weight: normal" x="26.1088" y="10.1425">ContMathMLInLexer</text>
  <path style="fill: #ffffff" d="M 24.7143 12 L 33.2857,12 L 35,13 L 33.2857,14 L 24.7143,14 L 23,13 L 24.7143,12z"/>
  <path style="fill: none; fill-opacity:0; stroke-width: 0.1; stroke: #0000ff" d="M 24.7143 12 L 33.2857,12 L 35,13 L 33.2857,14 L 24.7143,14 L 23,13 L 24.7143,12"/>
  <text style="fill: #000000; font-size: 0.8 cm; length: 6.02 cm; font-family: sans; font-style: normal; font-weight: normal" x="25.99" y="13.1425">ContMathMLInParser</text>
  <path style="fill: #ffffff" d="M 24.7143 15 L 33.2857,15 L 35,16 L 33.2857,17 L 24.7143,17 L 23,16 L 24.7143,15z"/>
  <path style="fill: none; fill-opacity:0; stroke-width: 0.1; stroke: #0000ff" d="M 24.7143 15 L 33.2857,15 L 35,16 L 33.2857,17 L 24.7143,17 L 23,16 L 24.7143,15"/>
  <text style="fill: #000000; font-size: 0.8 cm; length: 6.58 cm; font-family: sans; font-style: normal; font-weight: normal" x="25.71" y="16.1425">ContMathMLToIntuitive</text>
  <path style="fill: #ffffff" d="M 41.8571 9 L 46.1429,9 L 47,10 L 46.1429,11 L 41.8571,11 L 41,10 L 41.8571,9z"/>
  <path style="fill: none; fill-opacity:0; stroke-width: 0.1; stroke: #0000ff" d="M 41.8571 9 L 46.1429,9 L 47,10 L 46.1429,11 L 41.8571,11 L 41,10 L 41.8571,9"/>
  <text style="fill: #000000; font-size: 0.8 cm; length: 2.755 cm; font-family: sans; font-style: normal; font-weight: normal" x="42.6225" y="10.1425">LispLexer</text>
  <path style="fill: #ffffff" d="M 41.8571 12 L 46.1429,12 L 47,13 L 46.1429,14 L 41.8571,14 L 41,13 L 41.8571,12z"/>
  <path style="fill: none; fill-opacity:0; stroke-width: 0.1; stroke: #0000ff" d="M 41.8571 12 L 46.1429,12 L 47,13 L 46.1429,14 L 41.8571,14 L 41,13 L 41.8571,12"/>
  <text style="fill: #000000; font-size: 0.8 cm; length: 2.9925 cm; font-family: sans; font-style: normal; font-weight: normal" x="42.5037" y="13.1425">LispParser</text>
  <rect style="fill: #ffffff" x="33" y="23" width="8" height="1.9"/>
  <rect style="fill: none; fill-opacity:0; stroke-width: 0.1; stroke: #0000ff" x="33" y="23" width="8" height="1.9"/>
  <text style="fill: #000000; font-size: 0.8 cm; length: 5.225 cm; font-family: sans; font-style: normal; font-weight: normal" x="34.3875" y="24.0925">ContentTransform</text>
  <rect style="fill: #ffffff" x="33" y="26" width="8" height="1.9"/>
  <rect style="fill: none; fill-opacity:0; stroke-width: 0.1; stroke: #0000ff" x="33" y="26" width="8" height="1.9"/>
  <text style="fill: #000000; font-size: 0.8 cm; length: 5.595 cm; font-family: sans; font-style: normal; font-weight: normal" x="34.2025" y="27.0925">ContentTransform2</text>
  <rect style="fill: #ffffff" x="33" y="29" width="8" height="1.9"/>
  <rect style="fill: none; fill-opacity:0; stroke-width: 0.1; stroke: #0000ff" x="33" y="29" width="8" height="1.9"/>
  <text style="fill: #000000; font-size: 0.8 cm; length: 2.905 cm; font-family: sans; font-style: normal; font-weight: normal" x="35.5475" y="30.0925">Transform</text>
  <rect style="fill: #ffffff" x="-3" y="31" width="10" height="1.9"/>
  <rect style="fill: none; fill-opacity:0; stroke-width: 0.1; stroke: #0000ff" x="-3" y="31" width="10" height="1.9"/>
  <text style="fill: #000000; font-size: 0.8 cm; length: 2.905 cm; font-family: sans; font-style: normal; font-weight: normal" x="0.5475" y="32.0925">Transform</text>
  <rect style="fill: #ffffff" x="-0.907617" y="39" width="5.9" height="1.9"/>
  <rect style="fill: none; fill-opacity:0; stroke-width: 0.1; stroke: #0000ff" x="-0.907617" y="39" width="5.9" height="1.9"/>
  <text style="fill: #000000; font-size: 0.8 cm; length: 3.6875 cm; font-family: sans; font-style: normal; font-weight: normal" x="0.198633" y="40.0925">LaTeXOutput</text>
  <polygon style="fill: #ffffff" points="21.8203,48 26.184,48 25.4561,50 21.0924,50 "/>
  <polygon style="fill: none; fill-opacity:0; stroke-width: 0.1; stroke: #0000ff" points="21.8203,48 26.184,48 25.4561,50 21.0924,50 "/>
  <text style="fill: #0000ff; font-size: 0.8 cm; length: 2.9725 cm; font-family: sans; font-style: normal; font-weight: normal" x="22.152" y="49.1425">std::string</text>
  <rect style="fill: #ffffff" x="12.0924" y="39" width="3.5325" height="1.9"/>
  <rect style="fill: none; fill-opacity:0; stroke-width: 0.1; stroke: #0000ff" x="12.0924" y="39" width="3.5325" height="1.9"/>
  <text style="fill: #000000; font-size: 0.8 cm; length: 2.4325 cm; font-family: sans; font-style: normal; font-weight: normal" x="12.6424" y="40.0925">COutput</text>
  <rect style="fill: #ffffff" x="70.9999" y="39" width="8.965" height="1.9"/>
  <rect style="fill: none; fill-opacity:0; stroke-width: 0.1; stroke: #0000ff" x="70.9999" y="39" width="8.965" height="1.9"/>
  <text style="fill: #000000; font-size: 0.8 cm; length: 7.865 cm; font-family: sans; font-style: normal; font-weight: normal" x="71.5499" y="40.0925">ComplexCompute (Booost)</text>
  <rect style="fill: #ffffff" x="57.0924" y="39" width="5" height="2"/>
  <rect style="fill: none; fill-opacity:0; stroke-width: 0.1; stroke: #0000ff" x="57.0924" y="39" width="5" height="2"/>
  <text style="fill: #000000; font-size: 0.8 cm; length: 3.2575 cm; font-family: sans; font-style: normal; font-weight: normal" x="57.9637" y="40.1425">JavaOutput</text>
  <rect style="fill: #ffffff" x="31.0924" y="39" width="6" height="1.9"/>
  <rect style="fill: none; fill-opacity:0; stroke-width: 0.1; stroke: #0000ff" x="31.0924" y="39" width="6" height="1.9"/>
  <text style="fill: #000000; font-size: 0.8 cm; length: 4.29 cm; font-family: sans; font-style: normal; font-weight: normal" x="31.9474" y="40.0925">MathMLOutput</text>
  <rect style="fill: #ffffff" x="38.0924" y="39" width="5" height="1.9"/>
  <rect style="fill: none; fill-opacity:0; stroke-width: 0.1; stroke: #0000ff" x="38.0924" y="39" width="5" height="1.9"/>
  <text style="fill: #000000; font-size: 0.8 cm; length: 3.1875 cm; font-family: sans; font-style: normal; font-weight: normal" x="38.9986" y="40.0925">LispOutput</text>
  <rect style="fill: #ffffff" x="44.0924" y="39" width="6" height="1.9"/>
  <rect style="fill: none; fill-opacity:0; stroke-width: 0.1; stroke: #0000ff" x="44.0924" y="39" width="6" height="1.9"/>
  <text style="fill: #000000; font-size: 0.8 cm; length: 4.3175 cm; font-family: sans; font-style: normal; font-weight: normal" x="44.9337" y="40.0925">MaximaOutput</text>
  <rect style="fill: #ffffff" x="51.0924" y="39" width="5" height="1.9"/>
  <rect style="fill: none; fill-opacity:0; stroke-width: 0.1; stroke: #0000ff" x="51.0924" y="39" width="5" height="1.9"/>
  <text style="fill: #000000; font-size: 0.8 cm; length: 3.7775 cm; font-family: sans; font-style: normal; font-weight: normal" x="51.7036" y="40.0925">MapleOutput</text>
  <rect style="fill: #ffffff" x="23.0924" y="41" width="7" height="1.9"/>
  <rect style="fill: none; fill-opacity:0; stroke-width: 0.1; stroke: #0000ff" x="23.0924" y="41" width="7" height="1.9"/>
  <text style="fill: #000000; font-size: 0.8 cm; length: 4.335 cm; font-family: sans; font-style: normal; font-weight: normal" x="24.4249" y="42.0925">GnuplotOutput</text>
  <polygon style="fill: #ffffff" points="33.8203,48 41.9515,48 41.2236,50 33.0924,50 "/>
  <polygon style="fill: none; fill-opacity:0; stroke-width: 0.1; stroke: #0000ff" points="33.8203,48 41.9515,48 41.2236,50 33.0924,50 "/>
  <text style="fill: #0000ff; font-size: 0.8 cm; length: 6.74 cm; font-family: sans; font-style: normal; font-weight: normal" x="34.152" y="49.1425">std::complex&lt;double&gt;</text>
  <line style="fill: none; fill-opacity:0; stroke-width: 0.1; stroke: #0000ff" x1="13.5" y1="8.04883" x2="13.5" y2="8.5132"/>
  <polygon style="fill: #0000ff" points="13.5,8.8882 13.25,8.3882 13.5,8.5132 13.75,8.3882 "/>
  <polygon style="fill: none; fill-opacity:0; stroke-width: 0.1; stroke: #0000ff" points="13.5,8.8882 13.25,8.3882 13.5,8.5132 13.75,8.3882 "/>
  <line style="fill: none; fill-opacity:0; stroke-width: 0.1; stroke: #0000ff" x1="13.5" y1="11" x2="13.512" y2="11.5133"/>
  <polygon style="fill: #0000ff" points="13.5208,11.8882 13.2592,11.3942 13.512,11.5133 13.759,11.3825 "/>
  <polygon style="fill: none; fill-opacity:0; stroke-width: 0.1; stroke: #0000ff" points="13.5208,11.8882 13.2592,11.3942 13.512,11.5133 13.759,11.3825 "/>
  <line style="fill: none; fill-opacity:0; stroke-width: 0.1; stroke: #0000ff" x1="29" y1="8.04883" x2="29" y2="8.5132"/>
  <polygon style="fill: #0000ff" points="29,8.8882 28.75,8.3882 29,8.5132 29.25,8.3882 "/>
  <polygon style="fill: none; fill-opacity:0; stroke-width: 0.1; stroke: #0000ff" points="29,8.8882 28.75,8.3882 29,8.5132 29.25,8.3882 "/>
  <line style="fill: none; fill-opacity:0; stroke-width: 0.1; stroke: #0000ff" x1="29" y1="11" x2="29" y2="11.5132"/>
  <polygon style="fill: #0000ff" points="29,11.8882 28.75,11.3882 29,11.5132 29.25,11.3882 "/>
  <polygon style="fill: none; fill-opacity:0; stroke-width: 0.1; stroke: #0000ff" points="29,11.8882 28.75,11.3882 29,11.5132 29.25,11.3882 "/>
  <line style="fill: none; fill-opacity:0; stroke-width: 0.1; stroke: #0000ff" x1="29" y1="14" x2="29" y2="14.5132"/>
  <polygon style="fill: #0000ff" points="29,14.8882 28.75,14.3882 29,14.5132 29.25,14.3882 "/>
  <polygon style="fill: none; fill-opacity:0; stroke-width: 0.1; stroke: #0000ff" points="29,14.8882 28.75,14.3882 29,14.5132 29.25,14.3882 "/>
  <line style="fill: none; fill-opacity:0; stroke-width: 0.1; stroke: #0000ff" x1="44" y1="11" x2="44" y2="11.5132"/>
  <polygon style="fill: #0000ff" points="44,11.8882 43.75,11.3882 44,11.5132 44.25,11.3882 "/>
  <polygon style="fill: none; fill-opacity:0; stroke-width: 0.1; stroke: #0000ff" points="44,11.8882 43.75,11.3882 44,11.5132 44.25,11.3882 "/>
  <line style="fill: none; fill-opacity:0; stroke-width: 0.1; stroke: #0000ff" x1="43.9462" y1="8.04883" x2="43.9725" y2="8.51397"/>
  <polygon style="fill: #0000ff" points="43.9937,8.88838 43.7158,8.40329 43.9725,8.51397 44.2151,8.37506 "/>
  <polygon style="fill: none; fill-opacity:0; stroke-width: 0.1; stroke: #0000ff" points="43.9937,8.88838 43.7158,8.40329 43.9725,8.51397 44.2151,8.37506 "/>
  <polyline style="fill: none; fill-opacity:0; stroke-width: 0.1; stroke: #0000ff" points="13.5234,14 13.5234,19 28.5132,19 "/>
  <polygon style="fill: #0000ff" points="28.8882,19 28.3882,19.25 28.5132,19 28.3882,18.75 "/>
  <polygon style="fill: none; fill-opacity:0; stroke-width: 0.1; stroke: #0000ff" points="28.8882,19 28.3882,19.25 28.5132,19 28.3882,18.75 "/>
  <polyline style="fill: none; fill-opacity:0; stroke-width: 0.1; stroke: #0000ff" points="29,17 29,18.5132 "/>
  <polygon style="fill: #0000ff" points="29,18.8882 28.75,18.3882 29,18.5132 29.25,18.3882 "/>
  <polygon style="fill: none; fill-opacity:0; stroke-width: 0.1; stroke: #0000ff" points="29,18.8882 28.75,18.3882 29,18.5132 29.25,18.3882 "/>
  <polyline style="fill: none; fill-opacity:0; stroke-width: 0.1; stroke: #0000ff" points="44,14 44,19 29.4868,19 "/>
  <polygon style="fill: #0000ff" points="29.1118,19 29.6118,18.75 29.4868,19 29.6118,19.25 "/>
  <polygon style="fill: none; fill-opacity:0; stroke-width: 0.1; stroke: #0000ff" points="29.1118,19 29.6118,18.75 29.4868,19 29.6118,19.25 "/>
  <polyline style="fill: none; fill-opacity:0; stroke-width: 0.1; stroke: #0000ff" points="28.9902,19.1 28.9902,21 2,21 2,26.5132 "/>
  <polygon style="fill: #0000ff" points="2,26.8882 1.75,26.3882 2,26.5132 2.25,26.3882 "/>
  <polygon style="fill: none; fill-opacity:0; stroke-width: 0.1; stroke: #0000ff" points="2,26.8882 1.75,26.3882 2,26.5132 2.25,26.3882 "/>
  <polyline style="fill: none; fill-opacity:0; stroke-width: 0.1; stroke: #0000ff" points="29,19 29,21 37,21 37,22.4632 "/>
  <polygon style="fill: #0000ff" points="37,22.8382 36.75,22.3382 37,22.4632 37.25,22.3382 "/>
  <polygon style="fill: none; fill-opacity:0; stroke-width: 0.1; stroke: #0000ff" points="37,22.8382 36.75,22.3382 37,22.4632 37.25,22.3382 "/>
  <line style="fill: none; fill-opacity:0; stroke-width: 0.1; stroke: #0000ff" x1="2" y1="28.9" x2="2" y2="30.5132"/>
  <polygon style="fill: #0000ff" points="2,30.8882 1.75,30.3882 2,30.5132 2.25,30.3882 "/>
  <polygon style="fill: none; fill-opacity:0; stroke-width: 0.1; stroke: #0000ff" points="2,30.8882 1.75,30.3882 2,30.5132 2.25,30.3882 "/>
  <line style="fill: none; fill-opacity:0; stroke-width: 0.1; stroke: #0000ff" x1="2.00601" y1="32.9492" x2="2.03945" y2="38.5132"/>
  <polygon style="fill: #0000ff" points="2.04171,38.8882 1.78871,38.3897 2.03945,38.5132 2.2887,38.3867 "/>
  <polygon style="fill: none; fill-opacity:0; stroke-width: 0.1; stroke: #0000ff" points="2.04171,38.8882 1.78871,38.3897 2.03945,38.5132 2.2887,38.3867 "/>
  <line style="fill: none; fill-opacity:0; stroke-width: 0.1; stroke: #0000ff" x1="37" y1="24.947" x2="37" y2="25.5132"/>
  <polygon style="fill: #0000ff" points="37,25.8882 36.75,25.3882 37,25.5132 37.25,25.3882 "/>
  <polygon style="fill: none; fill-opacity:0; stroke-width: 0.1; stroke: #0000ff" points="37,25.8882 36.75,25.3882 37,25.5132 37.25,25.3882 "/>
  <line style="fill: none; fill-opacity:0; stroke-width: 0.1; stroke: #0000ff" x1="37" y1="27.9" x2="37" y2="28.4662"/>
  <polygon style="fill: #0000ff" points="37,28.8412 36.75,28.3412 37,28.4662 37.25,28.3412 "/>
  <polygon style="fill: none; fill-opacity:0; stroke-width: 0.1; stroke: #0000ff" points="37,28.8412 36.75,28.3412 37,28.4662 37.25,28.3412 "/>
  <polyline style="fill: none; fill-opacity:0; stroke-width: 0.1; stroke: #0000ff" points="37,30.9 37,35 13.8586,35 13.8586,38.465 "/>
  <polygon style="fill: #0000ff" points="13.8586,38.84 13.6086,38.34 13.8586,38.465 14.1086,38.34 "/>
  <polygon style="fill: none; fill-opacity:0; stroke-width: 0.1; stroke: #0000ff" points="13.8586,38.84 13.6086,38.34 13.8586,38.465 14.1086,38.34 "/>
  <polyline style="fill: none; fill-opacity:0; stroke-width: 0.1; stroke: #0000ff" points="37,30.9 37,35 75.4824,35 75.4824,38.465 "/>
  <polygon style="fill: #0000ff" points="75.4824,38.84 75.2324,38.34 75.4824,38.465 75.7324,38.34 "/>
  <polygon style="fill: none; fill-opacity:0; stroke-width: 0.1; stroke: #0000ff" points="75.4824,38.84 75.2324,38.34 75.4824,38.465 75.7324,38.34 "/>
  <polyline style="fill: none; fill-opacity:0; stroke-width: 0.1; stroke: #0000ff" points="37,30.9 37,35 34.0924,35 34.0924,38.465 "/>
  <polygon style="fill: #0000ff" points="34.0924,38.84 33.8424,38.34 34.0924,38.465 34.3424,38.34 "/>
  <polygon style="fill: none; fill-opacity:0; stroke-width: 0.1; stroke: #0000ff" points="34.0924,38.84 33.8424,38.34 34.0924,38.465 34.3424,38.34 "/>
  <polyline style="fill: none; fill-opacity:0; stroke-width: 0.1; stroke: #0000ff" points="37,30.9 37,35 40.5924,35 40.5924,38.465 "/>
  <polygon style="fill: #0000ff" points="40.5924,38.84 40.3424,38.34 40.5924,38.465 40.8424,38.34 "/>
  <polygon style="fill: none; fill-opacity:0; stroke-width: 0.1; stroke: #0000ff" points="40.5924,38.84 40.3424,38.34 40.5924,38.465 40.8424,38.34 "/>
  <polyline style="fill: none; fill-opacity:0; stroke-width: 0.1; stroke: #0000ff" points="37,30.9 37,35 47.0924,35 47.0924,38.5132 "/>
  <polygon style="fill: #0000ff" points="47.0924,38.8882 46.8424,38.3882 47.0924,38.5132 47.3424,38.3882 "/>
  <polygon style="fill: none; fill-opacity:0; stroke-width: 0.1; stroke: #0000ff" points="47.0924,38.8882 46.8424,38.3882 47.0924,38.5132 47.3424,38.3882 "/>
  <polyline style="fill: none; fill-opacity:0; stroke-width: 0.1; stroke: #0000ff" points="37,30.9 37,35 53.5924,35 53.5924,38.5132 "/>
  <polygon style="fill: #0000ff" points="53.5924,38.8882 53.3424,38.3882 53.5924,38.5132 53.8424,38.3882 "/>
  <polygon style="fill: none; fill-opacity:0; stroke-width: 0.1; stroke: #0000ff" points="53.5924,38.8882 53.3424,38.3882 53.5924,38.5132 53.8424,38.3882 "/>
  <polyline style="fill: none; fill-opacity:0; stroke-width: 0.1; stroke: #0000ff" points="37,30.9 37,35 26.5924,35 26.5924,36.4636 "/>
  <polygon style="fill: #0000ff" points="26.5924,36.8386 26.3424,36.3386 26.5924,36.4636 26.8424,36.3386 "/>
  <polygon style="fill: none; fill-opacity:0; stroke-width: 0.1; stroke: #0000ff" points="26.5924,36.8386 26.3424,36.3386 26.5924,36.4636 26.8424,36.3386 "/>
  <polyline style="fill: none; fill-opacity:0; stroke-width: 0.1; stroke: #0000ff" points="2.04238,40.9 2.04238,45 24.0022,45 24.0022,47.5132 "/>
  <polygon style="fill: #0000ff" points="24.0022,47.8882 23.7522,47.3882 24.0022,47.5132 24.2522,47.3882 "/>
  <polygon style="fill: none; fill-opacity:0; stroke-width: 0.1; stroke: #0000ff" points="24.0022,47.8882 23.7522,47.3882 24.0022,47.5132 24.2522,47.3882 "/>
  <polyline style="fill: none; fill-opacity:0; stroke-width: 0.1; stroke: #0000ff" points="75.4824,40.9 75.4824,46 37.5219,46 37.5219,47.4636 "/>
  <polygon style="fill: #0000ff" points="37.5219,47.8386 37.2719,47.3386 37.5219,47.4636 37.7719,47.3386 "/>
  <polygon style="fill: none; fill-opacity:0; stroke-width: 0.1; stroke: #0000ff" points="37.5219,47.8386 37.2719,47.3386 37.5219,47.4636 37.7719,47.3386 "/>
  <polyline style="fill: none; fill-opacity:0; stroke-width: 0.1; stroke: #0000ff" points="53.5924,40.9502 53.5924,45 24.0022,45 24.0022,47.5132 "/>
  <polygon style="fill: #0000ff" points="24.0022,47.8882 23.7522,47.3882 24.0022,47.5132 24.2522,47.3882 "/>
  <polygon style="fill: none; fill-opacity:0; stroke-width: 0.1; stroke: #0000ff" points="24.0022,47.8882 23.7522,47.3882 24.0022,47.5132 24.2522,47.3882 "/>
  <polyline style="fill: none; fill-opacity:0; stroke-width: 0.1; stroke: #0000ff" points="13.8586,40.9 13.8586,45 24.0022,45 24.0022,47.5132 "/>
  <polygon style="fill: #0000ff" points="24.0022,47.8882 23.7522,47.3882 24.0022,47.5132 24.2522,47.3882 "/>
  <polygon style="fill: none; fill-opacity:0; stroke-width: 0.1; stroke: #0000ff" points="24.0022,47.8882 23.7522,47.3882 24.0022,47.5132 24.2522,47.3882 "/>
  <polyline style="fill: none; fill-opacity:0; stroke-width: 0.1; stroke: #0000ff" points="26.5924,42.9 26.5924,45 24.0022,45 24.0022,47.5132 "/>
  <polygon style="fill: #0000ff" points="24.0022,47.8882 23.7522,47.3882 24.0022,47.5132 24.2522,47.3882 "/>
  <polygon style="fill: none; fill-opacity:0; stroke-width: 0.1; stroke: #0000ff" points="24.0022,47.8882 23.7522,47.3882 24.0022,47.5132 24.2522,47.3882 "/>
  <polyline style="fill: none; fill-opacity:0; stroke-width: 0.1; stroke: #0000ff" points="34.0924,40.9502 34.0924,45 24.0022,45 24.0022,47.5132 "/>
  <polygon style="fill: #0000ff" points="24.0022,47.8882 23.7522,47.3882 24.0022,47.5132 24.2522,47.3882 "/>
  <polygon style="fill: none; fill-opacity:0; stroke-width: 0.1; stroke: #0000ff" points="24.0022,47.8882 23.7522,47.3882 24.0022,47.5132 24.2522,47.3882 "/>
  <polyline style="fill: none; fill-opacity:0; stroke-width: 0.1; stroke: #0000ff" points="40.5924,40.9 40.5924,45 24.0022,45 24.0022,47.5132 "/>
  <polygon style="fill: #0000ff" points="24.0022,47.8882 23.7522,47.3882 24.0022,47.5132 24.2522,47.3882 "/>
  <polygon style="fill: none; fill-opacity:0; stroke-width: 0.1; stroke: #0000ff" points="24.0022,47.8882 23.7522,47.3882 24.0022,47.5132 24.2522,47.3882 "/>
  <polyline style="fill: none; fill-opacity:0; stroke-width: 0.1; stroke: #0000ff" points="47.0924,40.9 47.0924,45 24.0022,45 24.0022,47.5132 "/>
  <polygon style="fill: #0000ff" points="24.0022,47.8882 23.7522,47.3882 24.0022,47.5132 24.2522,47.3882 "/>
  <polygon style="fill: none; fill-opacity:0; stroke-width: 0.1; stroke: #0000ff" points="24.0022,47.8882 23.7522,47.3882 24.0022,47.5132 24.2522,47.3882 "/>
  <polyline style="fill: none; fill-opacity:0; stroke-width: 0.1; stroke: #0000ff" points="2.09017,21 -5,21 -5,31.95 -3.4868,31.95 "/>
  <polygon style="fill: #0000ff" points="-3.1118,31.95 -3.6118,32.2 -3.4868,31.95 -3.6118,31.7 "/>
  <polygon style="fill: none; fill-opacity:0; stroke-width: 0.1; stroke: #0000ff" points="-3.1118,31.95 -3.6118,32.2 -3.4868,31.95 -3.6118,31.7 "/>
  <polyline style="fill: none; fill-opacity:0; stroke-width: 0.1; stroke: #0000ff" points="5,21 -5,21 -5,34 1.5132,34 "/>
  <polygon style="fill: #0000ff" points="1.8882,34 1.3882,34.25 1.5132,34 1.3882,33.75 "/>
  <polygon style="fill: none; fill-opacity:0; stroke-width: 0.1; stroke: #0000ff" points="1.8882,34 1.3882,34.25 1.5132,34 1.3882,33.75 "/>
  <polyline style="fill: none; fill-opacity:0; stroke-width: 0.1; stroke: #0000ff" points="37,30.9 37,30.9 37,35 59.5924,35 59.5924,38.5132 "/>
  <polygon style="fill: #0000ff" points="59.5924,38.8882 59.3424,38.3882 59.5924,38.5132 59.8424,38.3882 "/>
  <polygon style="fill: none; fill-opacity:0; stroke-width: 0.1; stroke: #0000ff" points="59.5924,38.8882 59.3424,38.3882 59.5924,38.5132 59.8424,38.3882 "/>
  <polyline style="fill: none; fill-opacity:0; stroke-width: 0.1; stroke: #0000ff" points="59.5924,41 59.5924,45 24.0022,45 24.0022,47.5132 "/>
  <polygon style="fill: #0000ff" points="24.0022,47.8882 23.7522,47.3882 24.0022,47.5132 24.2522,47.3882 "/>
  <polygon style="fill: none; fill-opacity:0; stroke-width: 0.1; stroke: #0000ff" points="24.0022,47.8882 23.7522,47.3882 24.0022,47.5132 24.2522,47.3882 "/>
  <polyline style="fill: none; fill-opacity:0; stroke-width: 0.1; stroke: #0000ff" points="37,21 43,21 43,29.95 41.4868,29.95 "/>
  <polygon style="fill: #0000ff" points="41.1118,29.95 41.6118,29.7 41.4868,29.95 41.6118,30.2 "/>
  <polygon style="fill: none; fill-opacity:0; stroke-width: 0.1; stroke: #0000ff" points="41.1118,29.95 41.6118,29.7 41.4868,29.95 41.6118,30.2 "/>
  <polyline style="fill: none; fill-opacity:0; stroke-width: 0.1; stroke: #0000ff" points="37,21 43,21 43,33 37.4868,33 "/>
  <polygon style="fill: #0000ff" points="37.1118,33 37.6118,32.75 37.4868,33 37.6118,33.25 "/>
  <polygon style="fill: none; fill-opacity:0; stroke-width: 0.1; stroke: #0000ff" points="37.1118,33 37.6118,32.75 37.4868,33 37.6118,33.25 "/>
  <rect style="fill: #ffffff" x="-6.90762" y="39" width="4.7275" height="1.9"/>
  <rect style="fill: none; fill-opacity:0; stroke-width: 0.1; stroke: #0000ff" x="-6.90762" y="39" width="4.7275" height="1.9"/>
  <text style="fill: #000000; font-size: 0.8 cm; length: 3.6275 cm; font-family: sans; font-style: normal; font-weight: normal" x="-6.35762" y="40.0925">HTMLOutput</text>
  <rect style="fill: #ffffff" x="6.09238" y="39" width="5.095" height="1.9"/>
  <rect style="fill: none; fill-opacity:0; stroke-width: 0.1; stroke: #0000ff" x="6.09238" y="39" width="5.095" height="1.9"/>
  <text style="fill: #000000; font-size: 0.8 cm; length: 3.995 cm; font-family: sans; font-style: normal; font-weight: normal" x="6.64238" y="40.0925">MupadOutput</text>
  <polyline style="fill: none; fill-opacity:0; stroke-width: 0.1; stroke: #0000ff" points="8.63988,40.9 8.63988,45 24.0022,45 24.0022,47.5132 "/>
  <polygon style="fill: #0000ff" points="24.0022,47.8882 23.7522,47.3882 24.0022,47.5132 24.2522,47.3882 "/>
  <polygon style="fill: none; fill-opacity:0; stroke-width: 0.1; stroke: #0000ff" points="24.0022,47.8882 23.7522,47.3882 24.0022,47.5132 24.2522,47.3882 "/>
  <polyline style="fill: none; fill-opacity:0; stroke-width: 0.1; stroke: #0000ff" points="-4.54387,40.9 -4.54387,45 24.0022,45 24.0022,47.5132 "/>
  <polygon style="fill: #0000ff" points="24.0022,47.8882 23.7522,47.3882 24.0022,47.5132 24.2522,47.3882 "/>
  <polygon style="fill: none; fill-opacity:0; stroke-width: 0.1; stroke: #0000ff" points="24.0022,47.8882 23.7522,47.3882 24.0022,47.5132 24.2522,47.3882 "/>
  <polyline style="fill: none; fill-opacity:0; stroke-width: 0.1; stroke: #0000ff" points="2,35 2,35 8.63988,35 8.63988,38.5132 "/>
  <polygon style="fill: #0000ff" points="8.63988,38.8882 8.38988,38.3882 8.63988,38.5132 8.88988,38.3882 "/>
  <polygon style="fill: none; fill-opacity:0; stroke-width: 0.1; stroke: #0000ff" points="8.63988,38.8882 8.38988,38.3882 8.63988,38.5132 8.88988,38.3882 "/>
  <polyline style="fill: none; fill-opacity:0; stroke-width: 0.1; stroke: #0000ff" points="2,35 2,35 -4.54387,35 -4.54387,38.5132 "/>
  <polygon style="fill: #0000ff" points="-4.54387,38.8882 -4.79387,38.3882 -4.54387,38.5132 -4.29387,38.3882 "/>
  <polygon style="fill: none; fill-opacity:0; stroke-width: 0.1; stroke: #0000ff" points="-4.54387,38.8882 -4.79387,38.3882 -4.54387,38.5132 -4.29387,38.3882 "/>
  <polyline style="fill: none; fill-opacity:0; stroke-width: 0.1; stroke: #0000ff" points="37,30.9 37,33 15.35,33 15.35,23 2.4868,23 "/>
  <polygon style="fill: #0000ff" points="2.1118,23 2.6118,22.75 2.4868,23 2.6118,23.25 "/>
  <polygon style="fill: none; fill-opacity:0; stroke-width: 0.1; stroke: #0000ff" points="2.1118,23 2.6118,22.75 2.4868,23 2.6118,23.25 "/>
  <polyline style="fill: none; fill-opacity:0; stroke-width: 0.1; stroke: #0000ff" points="37,30.9 37,33 8.63988,33 8.63988,38.5132 "/>
  <polygon style="fill: #0000ff" points="8.63988,38.8882 8.38988,38.3882 8.63988,38.5132 8.88988,38.3882 "/>
  <polygon style="fill: none; fill-opacity:0; stroke-width: 0.1; stroke: #0000ff" points="8.63988,38.8882 8.38988,38.3882 8.63988,38.5132 8.88988,38.3882 "/>
  <rect style="fill: #ffffff" x="63.0924" y="39" width="6.935" height="2"/>
  <rect style="fill: none; fill-opacity:0; stroke-width: 0.1; stroke: #0000ff" x="63.0924" y="39" width="6.935" height="2"/>
  <text style="fill: #000000; font-size: 0.8 cm; length: 5.835 cm; font-family: sans; font-style: normal; font-weight: normal" x="63.6424" y="40.1425">MathematicaOutput</text>
  <rect style="fill: #ffffff" x="16.5463" y="39" width="6.0925" height="1.9"/>
  <rect style="fill: none; fill-opacity:0; stroke-width: 0.1; stroke: #0000ff" x="16.5463" y="39" width="6.0925" height="1.9"/>
  <text style="fill: #000000; font-size: 0.8 cm; length: 4.9925 cm; font-family: sans; font-style: normal; font-weight: normal" x="17.0963" y="40.0925">CComplexOutput</text>
  <rect style="fill: #ffffff" x="23.0924" y="37" width="7" height="2"/>
  <rect style="fill: none; fill-opacity:0; stroke-width: 0.1; stroke: #0000ff" x="23.0924" y="37" width="7" height="2"/>
  <text style="fill: #000000; font-size: 0.8 cm; length: 5.5275 cm; font-family: sans; font-style: normal; font-weight: normal" x="23.8287" y="38.1425">ConstantTransform</text>
  <line style="fill: none; fill-opacity:0; stroke-width: 0.1; stroke: #0000ff" x1="26.5924" y1="39.0496" x2="26.5924" y2="40.5132"/>
  <polygon style="fill: #0000ff" points="26.5924,40.8882 26.3424,40.3882 26.5924,40.5132 26.8424,40.3882 "/>
  <polygon style="fill: none; fill-opacity:0; stroke-width: 0.1; stroke: #0000ff" points="26.5924,40.8882 26.3424,40.3882 26.5924,40.5132 26.8424,40.3882 "/>
  <polyline style="fill: none; fill-opacity:0; stroke-width: 0.1; stroke: #0000ff" points="37,30.9 37,35 19.5925,35 19.5925,38.465 "/>
  <polygon style="fill: #0000ff" points="19.5925,38.84 19.3425,38.34 19.5925,38.465 19.8425,38.34 "/>
  <polygon style="fill: none; fill-opacity:0; stroke-width: 0.1; stroke: #0000ff" points="19.5925,38.84 19.3425,38.34 19.5925,38.465 19.8425,38.34 "/>
  <polyline style="fill: none; fill-opacity:0; stroke-width: 0.1; stroke: #0000ff" points="19.5925,40.9 19.5925,45 24.0022,45 24.0022,47.5132 "/>
  <polygon style="fill: #0000ff" points="24.0022,47.8882 23.7522,47.3882 24.0022,47.5132 24.2522,47.3882 "/>
  <polygon style="fill: none; fill-opacity:0; stroke-width: 0.1; stroke: #0000ff" points="24.0022,47.8882 23.7522,47.3882 24.0022,47.5132 24.2522,47.3882 "/>
  <polyline style="fill: none; fill-opacity:0; stroke-width: 0.1; stroke: #0000ff" points="66.5599,41 66.5599,45 24.0022,45 24.0022,47.5132 "/>
  <polygon style="fill: #0000ff" points="24.0022,47.8882 23.7522,47.3882 24.0022,47.5132 24.2522,47.3882 "/>
  <polygon style="fill: none; fill-opacity:0; stroke-width: 0.1; stroke: #0000ff" points="24.0022,47.8882 23.7522,47.3882 24.0022,47.5132 24.2522,47.3882 "/>
  <polyline style="fill: none; fill-opacity:0; stroke-width: 0.1; stroke: #0000ff" points="37,30.9 37,35 66.5599,35 66.5599,38.5132 "/>
  <polygon style="fill: #0000ff" points="66.5599,38.8882 66.3099,38.3882 66.5599,38.5132 66.8099,38.3882 "/>
  <polygon style="fill: none; fill-opacity:0; stroke-width: 0.1; stroke: #0000ff" points="66.5599,38.8882 66.3099,38.3882 66.5599,38.5132 66.8099,38.3882 "/>
</svg>
